IKResults
version=1
nRows=9
nColumns=24
inDegrees=yes

Units are S.I. units (second, meters, Newtons, ...)
Angles are in degrees.

endheader
time	pelvis_tilt	pelvis_list	pelvis_rotation	pelvis_tx	pelvis_ty	pelvis_tz	hip_flexion_r	hip_adduction_r	hip_rotation_r	knee_angle_r	ankle_angle_r	subtalar_angle_r	mtp_angle_r	hip_flexion_l	hip_adduction_l	hip_rotation_l	knee_angle_l	ankle_angle_l	subtalar_angle_l	mtp_angle_l	lumbar_extension	lumbar_bending	lumbar_rotation
      1.66000000	     22.47541106	      2.60989307	      2.68318683	     -0.62508452	      1.06222979	     -0.11240821	    -28.91749599	     -2.16337962	    -21.95112925	      1.27318299	      8.30817537	     17.36307932	      0.00000000	    -27.87768856	      0.37870175	    -13.94553873	      0.63871344	      6.11773122	     11.78390153	      0.00000000	    -39.50540403	     -1.97947355	     -0.83672603
      1.68000000	     22.02283558	      2.56470740	      2.67556823	     -0.62672758	      1.06204980	     -0.11244193	    -28.23165509	     -2.18327552	    -21.92555708	      1.15835135	      8.21954855	     17.32459378	      0.00000000	    -27.21456103	      0.36806877	    -13.97525698	      0.55235928	      6.01563849	     11.73866798	      0.00000000	    -39.59950573	     -1.93491416	     -0.85023358
      1.70000000	     21.50828143	      2.52213833	      2.67523147	     -0.62844508	      1.06181367	     -0.11246554	    -27.47392951	     -2.20556602	    -21.88217484	      1.04501271	      8.13634874	     17.25463171	      0.00000000	    -26.46265378	      0.35579694	    -14.00798344	      0.43908338	      5.92971195	     11.70556416	      0.00000000	    -39.65721657	     -1.89307555	     -0.86185515
      1.72000000	     20.95772332	      2.48541967	      2.65940151	     -0.63020227	      1.06154905	     -0.11246776	    -26.68179813	     -2.24077625	    -21.80671160	      0.95187633	      8.03465259	     17.16367583	      0.00000000	    -25.67130968	      0.35760128	    -14.03928777	      0.33192688	      5.82404970	     11.66200056	      0.00000000	    -39.70206349	     -1.86680882	     -0.86053878
      1.74000000	     20.35931386	      2.44867516	      2.64307633	     -0.63208327	      1.06125093	     -0.11246220	    -25.81816763	     -2.28158539	    -21.70527122	      0.83578896	      7.95545753	     17.03271270	      0.00000000	    -24.80205097	      0.35855592	    -14.04268326	      0.19066921	      5.74125820	     11.58028093	      0.00000000	    -39.73020187	     -1.84269003	     -0.86062973
      1.76000000	     19.73632553	      2.41334609	      2.62798557	     -0.63397950	      1.06094082	     -0.11244446	    -24.94278256	     -2.31977151	    -21.59594882	      0.75118863	      7.81810659	     16.91439687	      0.00000000	    -23.91417040	      0.36219741	    -14.03285049	      0.06984383	      5.61892770	     11.48353340	      0.00000000	    -39.75343953	     -1.82118058	     -0.86598490
      1.78000000	     19.06496197	      2.36765506	      2.62549623	     -0.63596769	      1.06057920	     -0.11239012	    -24.00780515	     -2.33874420	    -21.49374953	      0.66842653	      7.66261468	     16.77865051	      0.00000000	    -22.95275470	      0.34573637	    -14.00299143	     -0.07717221	      5.50439581	     11.37848403	      0.00000000	    -39.75204323	     -1.78963049	     -0.88856676
      1.80000000	     18.35182915	      2.31722657	      2.63924427	     -0.63806331	      1.06015527	     -0.11229356	    -23.01889908	     -2.34180421	    -21.40725669	      0.58276923	      7.50224385	     16.63058164	      0.00000000	    -21.92104397	      0.31330567	    -13.96113057	     -0.25317061	      5.40064348	     11.26809199	      0.00000000	    -39.73109930	     -1.75358716	     -0.92658466
      1.82000000	     17.62079505	      2.27050972	      2.65855705	     -0.64023674	      1.05968347	     -0.11219583	    -22.00572259	     -2.34656788	    -21.33269928	      0.49629792	      7.35233425	     16.48283079	      0.00000000	    -20.85880324	      0.28283862	    -13.91239414	     -0.43899567	      5.29585835	     11.14892582	      0.00000000	    -39.71127734	     -1.71848541	     -0.97294479
